<svg xmlns="http://www.w3.org/2000/svg" xmlns:xlink="http://www.w3.org/1999/xlink" width="185" height="188" viewBox="0 0 185 188" id="svg2"><defs id="defs4"><radialGradient xlink:href="#SVGID_1_" id="radialGradient6847" gradientUnits="userSpaceOnUse" gradientTransform="matrix(.498 0 0 .498 172.29 79.74)" cx="-310.583" cy="-60.055" r="20.114"/><radialGradient xlink:href="#SVGID_2_" id="radialGradient6849" gradientUnits="userSpaceOnUse" gradientTransform="matrix(.498 0 0 .498 172.29 79.74)" cx="-322.635" cy="-70.27" r="27.658"/><radialGradient xlink:href="#SVGID_3_" id="radialGradient6851" gradientUnits="userSpaceOnUse" gradientTransform="matrix(.498 0 0 .498 172.29 79.74)" cx="-313.183" cy="-109.951" r="40.54"/><radialGradient xlink:href="#SVGID_4_" id="radialGradient6853" gradientUnits="userSpaceOnUse" gradientTransform="matrix(.498 0 0 .498 172.29 79.74)" cx="-301.119" cy="-119.916" r="33.058"/><radialGradient xlink:href="#SVGID_5_" id="radialGradient6855" gradientUnits="userSpaceOnUse" gradientTransform="matrix(.498 0 0 .498 172.29 79.74)" cx="-310.583" cy="66.455" r="20.114"/><radialGradient xlink:href="#SVGID_6_" id="radialGradient6857" gradientUnits="userSpaceOnUse" gradientTransform="matrix(.498 0 0 .498 172.29 79.74)" cx="-322.635" cy="56.241" r="27.658"/><radialGradient xlink:href="#SVGID_7_" id="radialGradient6859" gradientUnits="userSpaceOnUse" gradientTransform="matrix(.498 0 0 .498 172.29 79.74)" cx="-313.183" cy="16.559" r="40.54"/><radialGradient xlink:href="#SVGID_8_" id="radialGradient6861" gradientUnits="userSpaceOnUse" gradientTransform="matrix(.498 0 0 .498 172.29 79.74)" cx="-301.119" cy="6.594" r="33.058"/><radialGradient xlink:href="#SVGID_9_" id="radialGradient6863" gradientUnits="userSpaceOnUse" gradientTransform="matrix(.498 0 0 .498 172.29 79.74)" cx="-310.265" cy="192.965" r="20.114"/><radialGradient xlink:href="#SVGID_10_" id="radialGradient6865" gradientUnits="userSpaceOnUse" gradientTransform="matrix(.498 0 0 .498 172.29 79.74)" cx="-322.317" cy="182.751" r="27.658"/><radialGradient xlink:href="#SVGID_11_" id="radialGradient6867" gradientUnits="userSpaceOnUse" gradientTransform="matrix(.498 0 0 .498 172.29 79.74)" cx="-312.865" cy="143.069" r="40.54"/><radialGradient xlink:href="#SVGID_12_" id="radialGradient6869" gradientUnits="userSpaceOnUse" gradientTransform="matrix(.498 0 0 .498 172.29 79.74)" cx="-300.801" cy="133.104" r="33.058"/></defs><g id="layer1"><g id="g4111"><g id="g3877" transform="translate(-.032 .163)"><radialGradient gradientUnits="userSpaceOnUse" gradientTransform="matrix(.498 0 0 .498 172.29 79.74)" r="20.114" cy="-60.055" cx="-310.583" id="SVGID_1_"><stop id="stop3926" offset="0" stop-color="#FFCF4F"/><stop id="stop3928" offset="1" stop-color="#F4C236"/></radialGradient><path id="path3930" d="M8.91 61h6.79c1.608 0 3.605-1.128 4.433-2.51l5.72-9.52c.677-1.396.653-3.426-.12-4.713l-3.377-5.592L8.91 61z" fill="url(#radialGradient6847)"/><radialGradient gradientUnits="userSpaceOnUse" gradientTransform="matrix(.498 0 0 .498 172.29 79.74)" r="27.658" cy="-70.27" cx="-322.635" id="SVGID_2_"><stop id="stop3933" offset="0" stop-color="#08A960"/><stop id="stop3935" offset="1" stop-color="#07914B"/></radialGradient><path id="path3937" d="M16.21 33.514L1.107 58.764C.524 60.01 1.13 61 2.628 61H8.91l13.446-22.335-6.146-10.173c.83 1.378.83 3.638 0 5.022" fill="url(#radialGradient6849)"/><radialGradient gradientUnits="userSpaceOnUse" gradientTransform="matrix(.498 0 0 .498 172.29 79.74)" r="40.54" cy="-109.951" cx="-313.183" id="SVGID_3_"><stop id="stop3940" offset="0" stop-color="#567FC0"/><stop id="stop3942" offset="1" stop-color="#557FC0"/></radialGradient><path id="path3944" d="M2.63 1C1.014 1 .374 2.133 1.204 3.51l24.53 40.746c.77 1.288.794 3.317.118 4.713l5.963-9.926L8.914 1H2.63z" fill="url(#radialGradient6851)"/><radialGradient gradientUnits="userSpaceOnUse" gradientTransform="matrix(.498 0 0 .498 172.29 79.74)" r="33.058" cy="-119.916" cx="-301.119" id="SVGID_4_"><stop id="stop3947" offset="0" stop-color="#E14C40"/><stop id="stop3949" offset="1" stop-color="#CD392D"/></radialGradient><path id="path3951" d="M8.914 1l22.903 38.045 3.32-5.53c.83-1.385.83-3.645 0-5.023L20.134 3.512C19.305 2.13 17.308 1 15.7 1H8.915z" fill="url(#radialGradient6853)"/></g><g id="g3953" transform="translate(-.032 .163)"><radialGradient gradientUnits="userSpaceOnUse" gradientTransform="matrix(.498 0 0 .498 172.29 79.74)" r="20.114" cy="66.455" cx="-310.583" id="SVGID_5_"><stop id="stop4002" offset="0" stop-color="#CCC"/><stop id="stop4004" offset="1" stop-color="#C0C0C0"/></radialGradient><path id="path4006" d="M8.91 124h6.79c1.608 0 3.605-1.128 4.433-2.51l5.72-9.52c.677-1.396.653-3.426-.12-4.713l-3.377-5.592L8.91 124z" fill="url(#radialGradient6855)"/><radialGradient gradientUnits="userSpaceOnUse" gradientTransform="matrix(.498 0 0 .498 172.29 79.74)" r="27.658" cy="56.241" cx="-322.635" id="SVGID_6_"><stop id="stop4009" offset="0" stop-color="#A0A0A0"/><stop id="stop4011" offset="1" stop-color="#7B7B7B"/></radialGradient><path id="path4013" d="M16.21 96.514l-15.102 25.25C.524 123.01 1.13 124 2.628 124H8.91l13.446-22.335-6.146-10.173c.83 1.378.83 3.638 0 5.022" fill="url(#radialGradient6857)"/><radialGradient gradientUnits="userSpaceOnUse" gradientTransform="matrix(.498 0 0 .498 172.29 79.74)" r="40.54" cy="16.559" cx="-313.183" id="SVGID_7_"><stop id="stop4016" offset="0" stop-color="#848484"/><stop id="stop4018" offset="1" stop-color="#838383"/></radialGradient><path id="path4020" d="M2.63 64c-1.614 0-2.255 1.133-1.425 2.51l24.53 40.746c.77 1.288.794 3.317.118 4.713l5.963-9.926L8.914 64H2.63z" fill="url(#radialGradient6859)"/><radialGradient gradientUnits="userSpaceOnUse" gradientTransform="matrix(.498 0 0 .498 172.29 79.74)" r="33.058" cy="6.594" cx="-301.119" id="SVGID_8_"><stop id="stop4023" offset="0" stop-color="#626262"/><stop id="stop4025" offset="1" stop-color="#474747"/></radialGradient><path id="path4027" d="M8.914 64l22.903 38.045 3.32-5.53c.83-1.385.83-3.645 0-5.023l-15.003-24.98C19.304 65.132 17.308 64 15.7 64H8.915z" fill="url(#radialGradient6861)"/></g><g id="g4029" transform="translate(-.032 .163)"><radialGradient gradientUnits="userSpaceOnUse" gradientTransform="matrix(.498 0 0 .498 172.29 79.74)" r="20.114" cy="192.965" cx="-310.265" id="SVGID_9_"><stop id="stop4078" offset="0" stop-color="#FFCF4F"/><stop id="stop4080" offset="1" stop-color="#F4C236"/></radialGradient><path id="path4082" d="M9.068 187h6.79c1.608 0 3.605-1.128 4.433-2.51l5.72-9.52c.678-1.396.654-3.426-.118-4.713l-3.378-5.592L9.068 187z" fill="url(#radialGradient6863)"/><radialGradient gradientUnits="userSpaceOnUse" gradientTransform="matrix(.498 0 0 .498 172.29 79.74)" r="27.658" cy="182.751" cx="-322.317" id="SVGID_10_"><stop id="stop4085" offset="0" stop-color="#08A960"/><stop id="stop4087" offset="1" stop-color="#07914B"/></radialGradient><path id="path4089" d="M16.368 159.514l-15.102 25.25C.683 186.01 1.29 187 2.786 187H9.07l13.446-22.335-6.146-10.173c.83 1.378.83 3.638 0 5.022" fill="url(#radialGradient6865)"/><radialGradient gradientUnits="userSpaceOnUse" gradientTransform="matrix(.498 0 0 .498 172.29 79.74)" r="40.54" cy="143.069" cx="-312.865" id="SVGID_11_"><stop id="stop4092" offset="0" stop-color="#567FC0"/><stop id="stop4094" offset="1" stop-color="#557FC0"/></radialGradient><path id="path4096" d="M2.787 127c-1.613 0-2.254 1.133-1.424 2.51l24.53 40.746c.77 1.288.794 3.317.118 4.713l5.964-9.926L9.072 127H2.787z" fill="url(#radialGradient6867)"/><radialGradient gradientUnits="userSpaceOnUse" gradientTransform="matrix(.498 0 0 .498 172.29 79.74)" r="33.058" cy="133.104" cx="-300.801" id="SVGID_12_"><stop id="stop4099" offset="0" stop-color="#E14C40"/><stop id="stop4101" offset="1" stop-color="#CD392D"/></radialGradient><path id="path4103" d="M9.072 127l22.903 38.045 3.32-5.53c.83-1.385.83-3.645 0-5.023l-15.003-24.98c-.83-1.38-2.825-2.512-4.432-2.512H9.072z" fill="url(#radialGradient6869)"/></g></g><text style="line-height:125%;-inkscape-font-specification:'sans-serif, Normal';text-align:start" x="41.916" y="957.358" id="text6520" transform="matrix(.98 0 0 1.02 0 -864.362)" font-size="22.031" font-family="sans-serif" letter-spacing="0" word-spacing="0" fill="#4d4d4d"><tspan id="tspan6522" x="41.916" y="957.358">Evento 2016</tspan></text><text style="line-height:89.99999762%;-inkscape-font-specification:'Arial Black, Normal';text-align:start" x="44.67" y="814.324" id="text6516-0" transform="matrix(.914 0 0 1.094 0 -864.362)" font-size="22.86" font-family="Arial Black" letter-spacing="0" word-spacing="0" fill="#4d4d4d"><tspan id="tspan6518-4" x="44.67" y="814.324">GDG ExFest</tspan></text><text style="line-height:125%;-inkscape-font-specification:'sans-serif, Normal';text-align:start" x="42.434" y="895.498" id="text6520-6" transform="matrix(.98 0 0 1.02 0 -864.362)" font-size="22.031" font-family="sans-serif" letter-spacing="0" word-spacing="0" fill="#4d4d4d"><tspan id="tspan6522-2" x="42.434" y="895.498">Evento 2016</tspan></text><text style="line-height:125%;-inkscape-font-specification:'sans-serif, Normal';text-align:start" x="42.434" y="1019.436" id="text6520-1" transform="matrix(.98 0 0 1.02 0 -864.362)" font-size="22.031" font-family="sans-serif" letter-spacing="0" word-spacing="0" fill="#e6e6e6"><tspan id="tspan6522-9" x="42.434" y="1019.436">Evento 2016</tspan></text></g><g id="layer2" font-size="22.86" font-family="Arial Black" letter-spacing="0" word-spacing="0"><text style="line-height:89.99999762%;-inkscape-font-specification:'Arial Black, Normal';text-align:start" x="44.313" y="81.088" id="text6516" fill="#4d4d4d" transform="scale(.914 1.094)"><tspan id="tspan6518" x="44.313" y="81.088">GDG ExFest</tspan></text><text style="line-height:89.99999762%;-inkscape-font-specification:'Arial Black, Normal';text-align:start" x="44.67" y="139.033" id="text6516-00" fill="#e6e6e6" transform="scale(.914 1.094)"><tspan id="tspan6518-8" x="44.67" y="139.033">GDG ExFest</tspan></text></g></svg>